<?xml version="1.0" encoding="UTF-8"?>
<svg width="400px" height="400px" viewBox="0 0 400 400" version="1.1" xmlns="http://www.w3.org/2000/svg" xmlns:xlink="http://www.w3.org/1999/xlink">
    <title>Artboard</title>
    <g id="Artboard" stroke="none" stroke-width="1" fill="none" fill-rule="evenodd">
        <rect fill="#000000" x="0" y="0" width="400" height="400"></rect>
        <g id="Group" transform="translate(75, 50)" fill="#FFFFFF">
            <polygon id="Rectangle" points="1.14935319e-15 100 50 100 50 125 25 125 25 225 50 225 50 250 1.61947018e-12 250 1.14935319e-15 125"></polygon>
            <polygon id="Rectangle" points="75 25 100 25 100 5.91056377e-13 175 -5.5247213e-16 175 25 225 25 225 75 200 75 200 100 175 100 175 125 150 125 150 75 75 75"></polygon>
            <rect id="Rectangle" x="75" y="275" width="150" height="25"></rect>
            <rect id="Rectangle" x="50" y="50" width="25" height="225"></rect>
            <rect id="Rectangle" x="225" y="50" width="25" height="225"></rect>
            <rect id="Rectangle" x="100" y="100" width="25" height="150"></rect>
        </g>
    </g>
</svg>